<svg width="12" height="12" viewBox="0 0 12 12" fill="none" xmlns="http://www.w3.org/2000/svg">
<path fill-rule="evenodd" clip-rule="evenodd" d="M0.701784 6.44288e-05C0.522082 6.44288e-05 0.342778 0.0705269 0.20566 0.210034C-0.0685534 0.489044 -0.0685534 0.940614 0.20566 1.21964C0.35276 1.36932 0.54879 1.43908 0.74136 1.42817L2.52228 3.24166L0.749818 5.04512L2.32155 4.50295L2.75829 4.05857L4.77241 6.10649L0.458638 10.4957L0.209876 11.9971L1.68689 11.7455L5.99926 7.35766L10.3159 11.7483L11.7929 12L11.5456 10.4957L7.23038 6.10502L9.2431 4.05709L9.68126 4.50292L11.253 5.04509L9.47772 3.23878L11.2586 1.42813C11.4512 1.43904 11.6472 1.36928 11.7943 1.21961C12.0686 0.940595 12.0686 0.489026 11.7943 0.210002C11.6572 0.0704946 11.4779 3.22144e-05 11.2982 3.22144e-05C11.1185 3.22144e-05 10.9392 0.0704946 10.8021 0.210002C10.655 0.35968 10.5864 0.559134 10.5971 0.755072L8.81623 2.56571L7.04377 0.760824L7.57662 2.36147L8.01479 2.8073L6.00207 4.85522L3.98935 2.8073L4.42469 2.36291L4.95754 0.763691L3.18653 2.56568L1.40276 0.750714C1.41227 0.556161 1.34526 0.358557 1.19923 0.20997C1.06212 0.0704625 0.881404 0 0.701702 0L0.701784 6.44288e-05Z" fill="#BDE6D7"/>
</svg>
