<svg width="10" height="12" viewBox="0 0 10 12" fill="none" xmlns="http://www.w3.org/2000/svg">
<path fill-rule="evenodd" clip-rule="evenodd" d="M5.00335 1.02712e-05H5.04707L5.23537 0.0956667C5.3609 0.159438 5.44384 0.201219 5.48419 0.221012C5.52454 0.240803 5.66184 0.305123 5.89609 0.413972C6.13034 0.522824 6.2514 0.5778 6.25924 0.578898C6.26709 0.579997 6.32929 0.605836 6.44586 0.656413C6.56243 0.70699 6.65209 0.744374 6.71486 0.768565C6.77762 0.792754 6.86841 0.82574 6.98722 0.867523C7.10603 0.909305 7.18112 0.935693 7.2125 0.946688C7.24389 0.957683 7.28312 0.970877 7.33019 0.98627C7.37727 1.00166 7.43779 1.02035 7.51177 1.04234C7.58575 1.06433 7.6799 1.09072 7.79422 1.12151C7.90855 1.15229 8.01951 1.17978 8.12711 1.20397C8.23471 1.22816 8.3042 1.24355 8.33558 1.25015C8.36697 1.25675 8.46672 1.27544 8.63484 1.30622C8.80297 1.33701 8.90832 1.3557 8.95091 1.3623C8.9935 1.3689 9.09774 1.38539 9.26362 1.41178C9.4295 1.43817 9.51357 1.45136 9.51581 1.45136C9.51805 1.45136 9.59875 1.46675 9.7579 1.49754C9.91706 1.52833 9.9972 1.54427 9.99832 1.54537L10 1.54702L9.98991 2.0385C9.98319 2.36615 9.96638 2.78946 9.93948 3.30843C9.91258 3.82739 9.89128 4.19022 9.87559 4.39692C9.8599 4.60363 9.84196 4.78065 9.82179 4.92799C9.80161 5.07532 9.77808 5.21496 9.75118 5.3469C9.72428 5.47884 9.69514 5.61188 9.66375 5.74601C9.63237 5.88015 9.60435 5.99779 9.5797 6.09895C9.55504 6.2001 9.5259 6.30895 9.49227 6.4255C9.45865 6.54205 9.43847 6.61241 9.43175 6.6366C9.42502 6.66079 9.41494 6.69157 9.40149 6.72895C9.38804 6.76634 9.37234 6.81252 9.35441 6.86749C9.33648 6.92247 9.30846 7.00163 9.27035 7.10498C9.23224 7.20833 9.20086 7.2908 9.17621 7.35237C9.15155 7.41394 9.12128 7.48761 9.08541 7.57337C9.04955 7.65913 9.00359 7.76249 8.94755 7.88343C8.89151 8.00438 8.85788 8.07475 8.84668 8.09454C8.83547 8.11433 8.79456 8.18635 8.72395 8.31059C8.65333 8.43483 8.61074 8.5085 8.59618 8.53159C8.5816 8.55468 8.54686 8.61296 8.49194 8.70642C8.43702 8.79987 8.40116 8.85925 8.38435 8.88453C8.36754 8.90982 8.34176 8.94941 8.30701 9.00328C8.27226 9.05716 8.24424 9.09894 8.22295 9.12863C8.20166 9.15832 8.177 9.1935 8.14898 9.23419C8.12095 9.27487 8.09406 9.31225 8.06828 9.34634C8.0425 9.38042 8.02232 9.40901 8.00775 9.4321C7.99318 9.45519 7.97189 9.48488 7.94387 9.52116C7.91585 9.55745 7.88895 9.59373 7.86317 9.63001C7.83739 9.6663 7.80937 9.70368 7.77911 9.74216C7.74885 9.78065 7.72307 9.81363 7.70177 9.84112C7.68048 9.86861 7.63508 9.92084 7.56559 9.9978C7.4961 10.0748 7.41428 10.1627 7.32012 10.2617C7.22597 10.3606 7.14303 10.4453 7.07129 10.5157C6.99956 10.586 6.95193 10.6306 6.92839 10.6493C6.90485 10.668 6.84993 10.7152 6.76363 10.7911C6.67732 10.867 6.62464 10.9131 6.60559 10.9296C6.58653 10.9461 6.53946 10.9868 6.46436 11.0517C6.38926 11.1165 6.33994 11.1583 6.31641 11.177C6.29287 11.1957 6.26597 11.2177 6.23571 11.243C6.20545 11.2683 6.16342 11.3029 6.10962 11.3469C6.05582 11.3909 6.01491 11.4233 5.98689 11.4442C5.95887 11.4651 5.93197 11.4838 5.90619 11.5003C5.88041 11.5168 5.83333 11.5454 5.76496 11.586C5.69659 11.6267 5.65176 11.6542 5.63046 11.6685C5.60916 11.6828 5.58507 11.6976 5.55817 11.713C5.53127 11.7284 5.50325 11.746 5.47411 11.7658C5.44496 11.7856 5.42367 11.7999 5.41022 11.8087C5.39677 11.8175 5.36763 11.8329 5.3228 11.8549C5.27797 11.8769 5.22416 11.9021 5.1614 11.9307C5.09863 11.9593 5.05492 11.978 5.03026 11.9868L4.99327 12L4.95292 11.9901C4.92602 11.9835 4.89688 11.9725 4.8655 11.9571C4.83411 11.9417 4.78143 11.9153 4.70746 11.878C4.63348 11.8406 4.59089 11.8175 4.57969 11.8087C4.56848 11.7999 4.5399 11.7806 4.49394 11.751C4.44799 11.7213 4.41325 11.6993 4.38971 11.685C4.36617 11.6707 4.32022 11.6432 4.25185 11.6025C4.18347 11.5618 4.1364 11.5333 4.11062 11.5168C4.08484 11.5003 4.05794 11.4816 4.02992 11.4607C4.0019 11.4398 3.96996 11.4151 3.93409 11.3865C3.89822 11.3579 3.85059 11.3189 3.79118 11.2694C3.73178 11.2199 3.68022 11.177 3.63651 11.1407C3.5928 11.1045 3.52891 11.0495 3.44484 10.9758C3.36078 10.9021 3.30698 10.856 3.28345 10.8373C3.25991 10.8186 3.20836 10.7746 3.12878 10.7053C3.0492 10.6361 3.00493 10.597 2.99596 10.5882C2.987 10.5794 2.94721 10.5404 2.8766 10.4711C2.80598 10.4019 2.75667 10.3524 2.72864 10.3227C2.70062 10.293 2.63898 10.2271 2.54371 10.1248C2.44843 10.0226 2.39127 9.95988 2.37222 9.93679C2.35316 9.9137 2.32514 9.87961 2.28816 9.83453C2.25117 9.78945 2.22203 9.75317 2.20074 9.72568C2.17944 9.69819 2.15814 9.66961 2.13685 9.63992C2.11555 9.61023 2.09314 9.57945 2.0696 9.54756C2.04606 9.51568 2.02477 9.48709 2.00571 9.4618C1.98666 9.43651 1.97041 9.41397 1.95696 9.39418C1.94351 9.37439 1.92501 9.34855 1.90147 9.31667C1.87794 9.28478 1.85776 9.25619 1.84095 9.2309C1.82414 9.20561 1.80172 9.17263 1.7737 9.13194C1.74568 9.09126 1.72438 9.05937 1.70981 9.03629C1.69524 9.0132 1.67171 8.97691 1.6392 8.92744C1.6067 8.87796 1.5854 8.84387 1.57531 8.82518C1.56523 8.80649 1.53721 8.75921 1.49125 8.68335C1.4453 8.60748 1.41504 8.558 1.40047 8.53491C1.3859 8.51182 1.34947 8.4486 1.29119 8.34525C1.23291 8.24189 1.18919 8.16383 1.16005 8.11105C1.13091 8.05827 1.10513 8.00879 1.08271 7.96261C1.0603 7.91643 1.02891 7.84716 0.988566 7.7548C0.948216 7.66245 0.928041 7.61517 0.928041 7.61297C0.928041 7.61077 0.907866 7.56019 0.867516 7.46124C0.827167 7.36228 0.795784 7.28421 0.77337 7.22704C0.750953 7.16987 0.719571 7.08301 0.679223 6.96646C0.638873 6.84991 0.598525 6.72567 0.558178 6.59373C0.517828 6.46179 0.472994 6.30126 0.423675 6.11214C0.374359 5.92303 0.339612 5.7823 0.319434 5.68994C0.299259 5.59758 0.271239 5.46345 0.235375 5.28752C0.199508 5.1116 0.178213 4.99615 0.171487 4.94117C0.164763 4.8862 0.150192 4.71798 0.127775 4.43651C0.105358 4.15504 0.0907877 3.94283 0.0840624 3.7999C0.0773377 3.65696 0.0694919 3.50523 0.0605251 3.3447C0.0515582 3.18417 0.0392289 2.92139 0.0235374 2.55636C0.00784578 2.19132 0 1.93294 0 1.78121V1.55361L0.0218562 1.54206C0.036427 1.53437 0.0762164 1.52502 0.141224 1.51403C0.206232 1.50303 0.295898 1.48874 0.410222 1.47115C0.524546 1.45355 0.698273 1.42496 0.931405 1.38538C1.16454 1.3458 1.33154 1.31721 1.43241 1.29961C1.53329 1.28202 1.66667 1.25453 1.83255 1.21715C1.99843 1.17977 2.1419 1.14458 2.26295 1.1116C2.384 1.07861 2.48824 1.04783 2.57566 1.01924C2.66309 0.990655 2.73146 0.968665 2.78077 0.953272C2.83009 0.937879 2.87716 0.922486 2.922 0.907093C2.96683 0.8917 3.0565 0.858714 3.191 0.808134C3.3255 0.757557 3.45159 0.70643 3.56928 0.654754C3.68696 0.603078 3.74973 0.57669 3.75758 0.57559C3.76542 0.57449 3.82202 0.549752 3.92738 0.501374C4.03274 0.452996 4.12801 0.409015 4.21319 0.369432C4.29837 0.329849 4.38243 0.290267 4.46537 0.250683C4.54832 0.211101 4.65143 0.159426 4.77472 0.0956563L4.95966 0H5.00337L5.00335 1.02712e-05Z" fill="#E2CEF3"/>
</svg>
